<svg xmlns="http://www.w3.org/2000/svg" xmlns:xlink="http://www.w3.org/1999/xlink" id="ALT_1_" width="64" height="64" x="0" y="0" enable-background="new 0 0 64 64" version="1.1" viewBox="0 0 64 64" xml:space="preserve"><g id="ALT"><g><path fill-rule="evenodd" d="M31,20h30c1.657,0,3-1.343,3-3s-1.343-3-3-3H31c-1.657,0-3,1.343-3,3 S29.343,20,31,20z M61,44H32.651L14.535,15.395l-0.006,0.004C13.997,14.56,13.066,14,12,14H3c-1.657,0-3,1.343-3,3s1.343,3,3,3 h7.349l18.117,28.605l0.006-0.004C29.003,49.44,29.934,50,31,50h30c1.657,0,3-1.343,3-3C64,45.343,62.657,44,61,44z" clip-rule="evenodd"/></g></g></svg>