<svg xmlns="http://www.w3.org/2000/svg" xmlns:xlink="http://www.w3.org/1999/xlink" id="Layer_1" width="64" height="64" x="0" y="0" enable-background="new 0 0 64 64" version="1.1" viewBox="0 0 64 64" xml:space="preserve"><g id="ARROW__x2F__LEFT_1_"><g id="ARROW__x2F__LEFT"><g><path d="M43.16,47.917L27.236,31.994l15.718-15.718C43.594,15.725,44,14.91,44,14c0-1.657-1.343-3-3-3 c-0.807,0-1.536,0.318-2.075,0.835l-0.008-0.008l-18,18l0.001,0.001C20.352,30.374,20,31.139,20,31.987c0,0.002,0,0.004,0,0.007 c0,0.002,0,0.004,0,0.007c0,0.849,0.352,1.613,0.918,2.159l-0.001,0.001l18,18l0.001-0.001C39.458,52.68,40.191,53,41,53 c1.657,0,3-1.343,3-3C44,49.191,43.68,48.458,43.16,47.917L43.16,47.917z"/></g></g></g></svg>