<svg xmlns="http://www.w3.org/2000/svg" xmlns:xlink="http://www.w3.org/1999/xlink" id="Layer_1" width="64" height="64" x="0" y="0" enable-background="new 0 0 64 64" version="1.1" viewBox="0 0 64 64" xml:space="preserve"><g id="BAR_GRAPH_1_"><g id="BAR_GRAPH"><g><path d="M48,50h6c1.657,0,3-1.343,3-3V26c0-1.657-1.343-3-3-3h-6c-1.657,0-3,1.343-3,3v21C45,48.657,46.343,50,48,50z M31,50h6 c1.657,0,3-1.343,3-3V14c0-1.657-1.343-3-3-3h-6c-1.657,0-3,1.343-3,3v33C28,48.657,29.343,50,31,50z M61,53H6v-7l0,0V8 c0-1.657-1.343-3-3-3S0,6.343,0,8v48c0,1.657,1.343,3,3,3h58c1.657,0,3-1.343,3-3C64,54.344,62.657,53,61,53z M14,50h6 c1.657,0,3-1.343,3-3v-6c0-1.657-1.343-3-3-3h-6c-1.657,0-3,1.343-3,3v6C11,48.657,12.343,50,14,50z"/></g></g></g></svg>