<svg xmlns="http://www.w3.org/2000/svg" xmlns:xlink="http://www.w3.org/1999/xlink" id="Layer_1" width="64" height="64" x="0" y="0" enable-background="new 0 0 64 64" version="1.1" viewBox="0 0 64 64" xml:space="preserve"><g id="BELL_1_"><g id="BELL"><g><path d="M52,45c-1.657,0-3-1.343-3-3V22c0-7.732-6.268-14-14-14c0-1.657-1.343-3-3-3s-3,1.343-3,3c-7.732,0-14,6.268-14,14v20 c0,1.657-1.343,3-3,3s-3,1.343-3,3s1.343,3,3,3h40c1.657,0,3-1.343,3-3S53.657,45,52,45z M32,60c3.314,0,6-2.686,6-6H26 C26,57.314,28.686,60,32,60z"/></g></g></g></svg>