<svg xmlns="http://www.w3.org/2000/svg" xmlns:xlink="http://www.w3.org/1999/xlink" id="Layer_1" width="64" height="64" x="0" y="0" enable-background="new 0 0 64 64" version="1.1" viewBox="0 0 64 64" xml:space="preserve"><g id="BROWSER__x2F__REMOVE_1_"><g id="BROWSER__x2F__REMOVE"><g><path d="M22,40h4l0,0h16l0,0c1.657,0,3-1.343,3-3s-1.343-3-3-3h-7l0,0h-6l0,0h-7c-1.657,0-3,1.343-3,3S20.343,40,22,40z M61,4H3 C1.343,4,0,5.343,0,7v50c0,1.657,1.343,3,3,3h58c1.657,0,3-1.343,3-3V7C64,5.343,62.657,4,61,4z M24,7c1.657,0,3,1.343,3,3 s-1.343,3-3,3s-3-1.343-3-3S22.343,7,24,7z M15,7c1.657,0,3,1.343,3,3s-1.343,3-3,3s-3-1.343-3-3S13.343,7,15,7z M6,7 c1.657,0,3,1.343,3,3s-1.343,3-3,3s-3-1.343-3-3S4.343,7,6,7z M61,57H3V16h58V57z"/></g></g></g></svg>