<svg xmlns="http://www.w3.org/2000/svg" xmlns:xlink="http://www.w3.org/1999/xlink" id="CASSETTE_1_" width="64" height="64" x="0" y="0" enable-background="new 0 0 64 64" version="1.1" viewBox="0 0 64 64" xml:space="preserve"><g id="CASSETTE"><g><path fill-rule="evenodd" d="M61,9H3c-1.657,0-3,1.343-3,3v40c0,1.657,1.343,3,3,3h8.369l4.846-12.114 l0.004,0.002C16.661,41.783,17.737,41,19,41h26c1.263,0,2.339,0.782,2.781,1.887l0.004-0.002L52.631,55H61c1.657,0,3-1.343,3-3V12 C64,10.343,62.657,9,61,9z M16,32c-2.209,0-4-1.791-4-4c0-2.209,1.791-4,4-4c2.209,0,4,1.791,4,4C20,30.209,18.209,32,16,32z M40,32H24v-8h16V32z M48,32c-2.209,0-4-1.791-4-4c0-2.209,1.791-4,4-4s4,1.791,4,4C52,30.209,50.209,32,48,32z M45.834,46.056 C45.436,44.865,44.325,44,43,44H21c-1.296,0-2.391,0.827-2.81,1.978l-0.01-0.004L14.899,55h33.93l-2.983-8.949L45.834,46.056z" clip-rule="evenodd"/></g></g></svg>