<svg xmlns="http://www.w3.org/2000/svg" xmlns:xlink="http://www.w3.org/1999/xlink" id="Layer_1" width="64" height="64" x="0" y="0" enable-background="new 0 0 64 64" version="1.1" viewBox="0 0 64 64" xml:space="preserve"><g id="CIRCLE__x2F__MINUS_1_"><g id="CIRCLE__x2F__MINUS"><g><path d="M45,29H19c-1.657,0-3,1.343-3,3s1.343,3,3,3h26c1.657,0,3-1.343,3-3S46.657,29,45,29z M32,0C14.327,0,0,14.327,0,32 s14.327,32,32,32s32-14.327,32-32S49.673,0,32,0z M32,58C17.641,58,6,46.359,6,32C6,17.64,17.641,6,32,6 c14.359,0,26,11.641,26,26C58,46.359,46.359,58,32,58z"/></g></g></g></svg>