<svg xmlns="http://www.w3.org/2000/svg" xmlns:xlink="http://www.w3.org/1999/xlink" id="Layer_1" width="64" height="64" x="0" y="0" enable-background="new 0 0 64 64" version="1.1" viewBox="0 0 64 64" xml:space="preserve"><g id="CIRCLE__x2F__STOP_1_"><g id="CIRCLE__x2F__STOP"><g><path d="M40,21H24c-1.657,0-3,1.343-3,3v16c0,1.657,1.343,3,3,3h16c1.657,0,3-1.343,3-3V24C43,22.343,41.657,21,40,21z M32,0 C14.327,0,0,14.327,0,32s14.327,32,32,32s32-14.327,32-32S49.673,0,32,0z M32,58C17.641,58,6,46.359,6,32C6,17.641,17.641,6,32,6 c14.359,0,26,11.64,26,26C58,46.359,46.359,58,32,58z"/></g></g></g></svg>