<svg xmlns="http://www.w3.org/2000/svg" xmlns:xlink="http://www.w3.org/1999/xlink" id="COPY_3_" width="64" height="64" x="0" y="0" enable-background="new 0 0 64 64" version="1.1" viewBox="0 0 64 64" xml:space="preserve"><g id="COPY"><g><path fill-rule="evenodd" d="M41,20H3c-1.657,0-3,1.343-3,3v38c0,1.657,1.343,3,3,3h38c1.657,0,3-1.343,3-3 V23C44,21.343,42.657,20,41,20z M38,58H6V26h9v0h13v0h10V58z M61,0H23c-1.657,0-3,1.343-3,3v14h6V6h9v0h13v0h10v32H47v6h14 c1.657,0,3-1.343,3-3V3C64,1.344,62.657,0,61,0z" clip-rule="evenodd"/></g></g></svg>