<svg xmlns="http://www.w3.org/2000/svg" xmlns:xlink="http://www.w3.org/1999/xlink" id="Layer_1" width="64" height="64" x="0" y="0" enable-background="new 0 0 64 64" version="1.1" viewBox="0 0 64 64" xml:space="preserve"><g id="DOCUMENT__x2F__DELETE_1_"><g id="DOCUMENT__x2F__DELETE"><g><path d="M30,22.008h19L27,1.964v17.037C27,20.662,28.343,22.008,30,22.008z M41.516,54l-1.758-1.757 C38.672,51.157,38,49.657,38,48c0-3.314,2.686-6,6-6c1.657,0,3.152,0.675,4.238,1.762l0.005-0.005L49,44.516v-19.5H30 c-3.314,0-6-2.692-6-6.013V2H8C6.343,2,5,3.343,5,5v52c0,1.657,1.343,3,3,3h28l0,0h2c0-1.657,0.672-3.156,1.758-4.242 l-0.001-0.001L41.516,54z M54.243,54l3.879-3.878C58.664,49.578,59,48.828,59,48c0-1.657-1.343-3-3-3 c-0.828,0-1.578,0.336-2.121,0.879L50,49.758l-3.879-3.879C45.578,45.336,44.829,45,44,45c-1.657,0-3,1.343-3,3 c0,0.828,0.336,1.578,0.879,2.121L45.757,54l-3.879,3.879C41.336,58.422,41,59.172,41,60c0,1.657,1.343,3,3,3 c0.828,0,1.578-0.336,2.121-0.879L50,58.243l3.879,3.879C54.422,62.664,55.172,63,56,63c1.657,0,3-1.343,3-3 c0-0.828-0.336-1.578-0.879-2.121L54.243,54z"/></g></g></g></svg>