<svg xmlns="http://www.w3.org/2000/svg" xmlns:xlink="http://www.w3.org/1999/xlink" id="FONT_SIZE_DOWN_1_" width="64" height="64" x="0" y="0" enable-background="new 0 0 64 64" version="1.1" viewBox="0 0 64 64" xml:space="preserve"><g id="FONT_SIZE_DOWN"><g><path fill-rule="evenodd" d="M39.798,52.919l-17-44l-0.007,0.002C22.358,7.799,21.275,7,20,7 c-1.275,0-2.358,0.799-2.792,1.921l-0.006-0.002l-17,44l0.007,0.003C0.078,53.257,0,53.619,0,54c0,1.657,1.343,3,3,3 c1.275,0,2.358-0.799,2.792-1.921l0.007,0.002L9.694,45h20.613l3.895,10.081l0.006-0.002C34.642,56.201,35.725,57,37,57 c1.657,0,3-1.343,3-3c0-0.382-0.078-0.743-0.208-1.079L39.798,52.919z M12.012,39L20,18.324L27.988,39H12.012z M61,29H43 c-1.657,0-3,1.343-3,3c0,1.657,1.343,3,3,3h18c1.657,0,3-1.343,3-3C64,30.343,62.657,29,61,29z" clip-rule="evenodd"/></g></g></svg>