<svg xmlns="http://www.w3.org/2000/svg" xmlns:xlink="http://www.w3.org/1999/xlink" id="Layer_1" width="64" height="64" x="0" y="0" enable-background="new 0 0 64 64" version="1.1" viewBox="0 0 64 64" xml:space="preserve"><g id="IMAGE_1_"><g id="IMAGE"><g><path d="M40,15L40,15h9v9c0,1.657,1.343,3,3,3s3-1.343,3-3l0,0V13l0,0V9H40c-1.657,0-3,1.343-3,3S38.343,15,40,15z M40,55h15v-4 l0,0V40l0,0c0-1.657-1.343-3-3-3s-3,1.343-3,3v9h-9l0,0c-1.657,0-3,1.343-3,3S38.343,55,40,55z M61,0H3C1.343,0,0,1.343,0,3v58 c0,1.657,1.343,3,3,3h58c1.657,0,3-1.343,3-3V3C64,1.343,62.657,0,61,0z M58,58H6V6h52V58z M24,55c1.657,0,3-1.343,3-3 s-1.343-3-3-3l0,0h-9v-9l0,0c0-1.657-1.343-3-3-3s-3,1.343-3,3l0,0v11l0,0v4H24L24,55z M9,24c0,1.657,1.343,3,3,3s3-1.343,3-3 l0,0v-9h9l0,0c1.657,0,3-1.343,3-3s-1.343-3-3-3l0,0H9v4l0,0V24L9,24z"/></g></g></g></svg>