<svg xmlns="http://www.w3.org/2000/svg" xmlns:xlink="http://www.w3.org/1999/xlink" id="Layer_1" width="64" height="64" x="0" y="0" enable-background="new 0 0 64 64" version="1.1" viewBox="0 0 64 64" xml:space="preserve"><g id="LIST_2_1_"><g id="LIST_2"><g><path d="M9,45H3c-1.657,0-3,1.343-3,3s1.343,3,3,3h6l0,0c1.657,0,3-1.343,3-3S10.657,45,9,45z M61,29H21c-1.657,0-3,1.343-3,3 s1.343,3,3,3l0,0h40c1.657,0,3-1.343,3-3S62.657,29,61,29z M9,29H3c-1.657,0-3,1.343-3,3s1.343,3,3,3h6l0,0c1.657,0,3-1.343,3-3 S10.657,29,9,29z M21,19h40c1.657,0,3-1.343,3-3s-1.343-3-3-3H21.001H21c-1.657,0-3,1.343-3,3S19.343,19,21,19z M9,13L9,13H3 c-1.657,0-3,1.343-3,3s1.343,3,3,3h6c1.657,0,3-1.343,3-3S10.657,13,9,13z M61,45H21c-1.657,0-3,1.343-3,3s1.343,3,3,3l0,0h40 c1.657,0,3-1.343,3-3S62.657,45,61,45z"/></g></g></g></svg>