<svg xmlns="http://www.w3.org/2000/svg" xmlns:xlink="http://www.w3.org/1999/xlink" id="Layer_1" width="64" height="64" x="0" y="0" enable-background="new 0 0 64 64" version="1.1" viewBox="0 0 64 64" xml:space="preserve"><g id="LOGIN_1_"><g id="LOGIN"><g><path d="M39.007,34.23C39.617,33.682,40,32.885,40,32s-0.384-1.681-0.993-2.23l0,0l-10-9l0,0C28.475,20.292,27.772,20,27,20 c-1.657,0-3,1.343-3,3c0,0.885,0.383,1.681,0.993,2.23l0,0L29.182,29H11c-1.657,0-3,1.343-3,3s1.343,3,3,3h18.182l-4.189,3.77 l0,0C24.384,39.32,24,40.115,24,41c0,1.657,1.343,3,3,3c0.772,0,1.475-0.292,2.007-0.77l0,0L39.007,34.23L39.007,34.23z M56,31.932V8.935c0-1.657-1.343-3-3-3H38c-1.657,0-3,1.343-3,3c0,1.657,1.343,3,3,3h12v40H38c-1.657,0-3,1.342-3,3 c0,1.656,1.343,3,3,3h15c1.657,0,3-1.344,3-3V31.937c0-0.001,0-0.002,0-0.003C56,31.934,56,31.933,56,31.932z"/></g></g></g></svg>