<svg xmlns="http://www.w3.org/2000/svg" xmlns:xlink="http://www.w3.org/1999/xlink" id="Layer_1" width="64" height="64" x="0" y="0" enable-background="new 0 0 64 64" version="1.1" viewBox="0 0 64 64" xml:space="preserve"><g id="COMPUTER__x2F__REMOVE_1_"><g id="COMPUTER__x2F__REMOVE"><g><path d="M26,28h12c1.657,0,3-1.343,3-3s-1.343-3-3-3H26c-1.657,0-3,1.343-3,3S24.343,28,26,28z M60,4H4C2.343,4,1,5.343,1,7v40 c0,1.657,1.343,3,3,3h19v5l-4,4v1h26v-1l-4-4v-5h19c1.657,0,3-1.343,3-3V7C63,5.343,61.657,4,60,4z M59,42H5V8h54V42z"/></g></g></g></svg>