<svg xmlns="http://www.w3.org/2000/svg" xmlns:xlink="http://www.w3.org/1999/xlink" id="Layer_1" width="64" height="64" x="0" y="0" enable-background="new 0 0 64 64" version="1.1" viewBox="0 0 64 64" xml:space="preserve"><g id="MORE_2_1_"><g id="MORE_2"><g><path d="M31.998,26c-3.314,0-6.001,2.687-6.001,6.001c0,3.313,2.687,6.001,6.001,6.001c3.314,0,6.002-2.688,6.002-6.001 C38,28.687,35.312,26,31.998,26z M31.998,19.001C35.312,19.001,38,16.314,38,13c0-3.313-2.688-6-6.002-6 c-3.314,0-6.001,2.686-6.001,6.001C25.997,16.315,28.684,19.001,31.998,19.001z M31.998,45c-3.314,0-6.001,2.688-6.001,6.001 s2.687,6.001,6.001,6.001c3.314,0,6.002-2.688,6.002-6.001S35.312,45,31.998,45z"/></g></g></g></svg>