<svg xmlns="http://www.w3.org/2000/svg" xmlns:xlink="http://www.w3.org/1999/xlink" id="Layer_1" width="64" height="64" x="0" y="0" enable-background="new 0 0 64 64" version="1.1" viewBox="0 0 64 64" xml:space="preserve"><g id="MOUSTACHE_1_"><g id="MOUSTACHE"><g><path d="M63.827,26.719c-1.134-0.288-2.876,4.125-6.966,4.125c-5.254,0-7.725-8.839-15.935-8.839 c-6.513,0-8.497,5.067-8.928,5.067s-2.415-5.067-8.927-5.067c-8.208,0-10.681,8.839-15.935,8.839c-4.09,0-5.83-4.413-6.964-4.125 c-1.06,0.269,1.955,15.277,16.323,15.277c9.322,0,14.802-7.238,15.503-7.238c0.702,0,6.183,7.238,15.504,7.238 C61.872,41.996,64.887,26.988,63.827,26.719z"/></g></g></g></svg>