<svg xmlns="http://www.w3.org/2000/svg" xmlns:xlink="http://www.w3.org/1999/xlink" id="Layer_1" width="64" height="64" x="0" y="0" enable-background="new 0 0 64 64" version="1.1" viewBox="0 0 64 64" xml:space="preserve"><g id="MUSIC_1_"><g id="MUSIC"><g><path d="M60,0L20,9c0,0-3,0.681-3,3v40.66C15.499,52.241,13.802,52,12,52c-6.075,0-11,2.686-11,6s4.925,6,11,6s11-2.686,11-6 V26.123l34-7.415V43.66C55.499,43.241,53.802,43,52,43c-6.075,0-11,2.686-11,6s4.925,6,11,6s11-2.686,11-6V3 C63,1.343,61.657,0,60,0z"/></g></g></g></svg>