<svg xmlns="http://www.w3.org/2000/svg" xmlns:xlink="http://www.w3.org/1999/xlink" id="Layer_1" width="64" height="64" x="0" y="0" enable-background="new 0 0 64 64" version="1.1" viewBox="0 0 64 64" xml:space="preserve"><g id="PIN_2_1_"><g id="PIN_2"><g><path d="M32,16c-4.418,0-8,3.582-8,8s3.582,8,8,8s8-3.582,8-8S36.418,16,32,16z M32,0C18.746,0,8,10.747,8,24 c0,13.254,24,40,24,40s24-26.746,24-40C56,10.747,45.254,0,32,0z M32,40c-8.836,0-16-7.164-16-16S23.164,8,32,8s16,7.164,16,16 S40.836,40,32,40z"/></g></g></g></svg>