<svg xmlns="http://www.w3.org/2000/svg" xmlns:xlink="http://www.w3.org/1999/xlink" id="Layer_1" width="64" height="64" x="0" y="0" enable-background="new 0 0 64 64" version="1.1" viewBox="0 0 64 64" xml:space="preserve"><g id="SCREEN_EXPAND_1_1_"><g id="SCREEN_EXPAND_1"><g><path d="M15,58H6v-9c0-1.657-1.343-3-3-3s-3,1.343-3,3v12c0,1.657,1.343,3,3,3h12c1.657,0,3-1.343,3-3S16.657,58,15,58z M9,55h46 V9H9V55z M15,15h34v34H15V15z M61,0H49l0,0c-1.657,0-3,1.343-3,3s1.343,3,3,3l0,0h9v9c0,1.657,1.343,3,3,3s3-1.343,3-3V3 C64,1.343,62.657,0,61,0z"/></g></g></g></svg>