<svg xmlns="http://www.w3.org/2000/svg" xmlns:xlink="http://www.w3.org/1999/xlink" id="Layer_1" width="64" height="64" x="0" y="0" enable-background="new 0 0 64 64" version="1.1" viewBox="0 0 64 64" xml:space="preserve"><g id="SCREEN_EXPAND_2_1_"><g id="SCREEN_EXPAND_2"><g><path d="M15,6c1.657,0,3-1.343,3-3s-1.343-3-3-3l0,0H3C1.343,0,0,1.343,0,3v12l0,0c0,1.657,1.343,3,3,3s3-1.343,3-3V6H15L15,6z M64,49c0-1.657-1.343-3-3-3s-3,1.343-3,3l0,0v9h-9c-1.657,0-3,1.343-3,3s1.343,3,3,3h12c1.657,0,3-1.343,3-3V49L64,49z M55,9H9 v46h46V9z M49,49H15V15h34V49z"/></g></g></g></svg>