<svg xmlns="http://www.w3.org/2000/svg" xmlns:xlink="http://www.w3.org/1999/xlink" id="Layer_1" width="64" height="64" x="0" y="0" enable-background="new 0 0 64 64" version="1.1" viewBox="0 0 64 64" xml:space="preserve"><g id="SKIP__x2F__PREVIOUS_1_"><g id="SKIP__x2F__PREVIOUS"><g><path d="M41,19c-0.584,0-1.129,0.168-1.59,0.456l0,0L26,27.837V22c0-1.657-1.343-3-3-3s-3,1.343-3,3v20c0,1.657,1.343,3,3,3 s3-1.343,3-3v-5.837l13.41,8.381l0,0C39.871,44.833,40.416,45,41,45c1.657,0,3-1.343,3-3V22C44,20.343,42.657,19,41,19z"/></g></g></g></svg>