<svg xmlns="http://www.w3.org/2000/svg" xmlns:xlink="http://www.w3.org/1999/xlink" id="Layer_1" width="64" height="64" x="0" y="0" enable-background="new 0 0 64 64" version="1.1" viewBox="0 0 64 64" xml:space="preserve"><g id="SKIP__x2F__NEXT_1_"><g id="SKIP__x2F__NEXT"><g><path d="M41,19c-1.657,0-3,1.343-3,3v5.837l-13.41-8.381l0,0C24.129,19.168,23.584,19,23,19c-1.657,0-3,1.343-3,3v20 c0,1.657,1.343,3,3,3c0.584,0,1.129-0.167,1.59-0.456l0,0L38,36.163V42c0,1.657,1.343,3,3,3s3-1.343,3-3V22 C44,20.343,42.657,19,41,19z"/></g></g></g></svg>