<svg xmlns="http://www.w3.org/2000/svg" xmlns:xlink="http://www.w3.org/1999/xlink" id="Layer_1" width="64" height="64" x="0" y="0" enable-background="new 0 0 64 64" version="1.1" viewBox="0 0 64 64" xml:space="preserve"><g id="SQUARE__x2F__DELETE_1_"><g id="SQUARE__x2F__DELETE"><g><path d="M18,43c0,1.657,1.343,3,3,3c0.828,0,1.578-0.336,2.121-0.879L32,36.243l8.879,8.879C41.422,45.664,42.172,46,43,46 c1.657,0,3-1.343,3-3c0-0.828-0.336-1.578-0.879-2.121L36.243,32l8.879-8.878C45.664,22.579,46,21.829,46,21c0-1.657-1.343-3-3-3 c-0.828,0-1.578,0.336-2.121,0.879L32,27.758l-8.879-8.879C22.579,18.336,21.828,18,21,18c-1.657,0-3,1.343-3,3 c0,0.828,0.336,1.578,0.879,2.121L27.757,32l-8.879,8.879C18.336,41.422,18,42.172,18,43z M61,0H3C1.343,0,0,1.343,0,3v58 c0,1.657,1.343,3,3,3h58c1.657,0,3-1.343,3-3V3C64,1.343,62.657,0,61,0z M58,58H6V6h52V58z"/></g></g></g></svg>