<svg xmlns="http://www.w3.org/2000/svg" xmlns:xlink="http://www.w3.org/1999/xlink" id="Layer_1" width="64" height="64" x="0" y="0" enable-background="new 0 0 64 64" version="1.1" viewBox="0 0 64 64" xml:space="preserve"><g id="vimeo_1_"><g id="vimeo"><g><path d="M36.348,18.728c2.748-0.624,7.539-1.522,8.529,1.306c1.246,8.476-4.611,15.407-9.84,19.602 C24.919,34.128,32.523,8.81,21.915,4.633c-5.448-2.145-10.31,2.79-14.434,6.255C4.788,13.151-0.013,16.758,0,19.531v0.073 c0.023,0.633,0.301,1.221,0.921,1.738c2.13,3.51,3.998-2.43,7.872-1.306c8.471,6.948,5.793,37.749,18.37,39.856 c4.882,0.817,11.08-3.648,14.433-6.535c4.625-3.98,9.924-10.722,13.777-16.334c0,0,9.677-12.741,8.529-23.521 C61.789-4.107,36.207,5.801,36.348,18.728z"/></g></g></g></svg>